<?xml version="1.0" encoding="UTF-8"?>
<svg version="1.1" xmlns="http://www.w3.org/2000/svg" width="500" height="500">
<path d="M0 0 C4.28626216 2.39526415 6.41426009 5.74293418 7.97402954 10.28482056 C8.87596706 14.1094199 9.12592771 17.43291624 9.14990234 21.35693359 C9.15661957 22.05241302 9.16333679 22.74789246 9.17025757 23.46444702 C9.18913582 25.74720573 9.19315808 28.02966822 9.1953125 30.3125 C9.20175285 31.92086908 9.20848209 33.52923703 9.21548462 35.13760376 C9.22743597 38.50826727 9.2311682 41.87882853 9.22998047 45.24951172 C9.22977864 49.52005553 9.25694824 53.78992367 9.29152489 58.06030846 C9.3140355 61.38598491 9.31781055 64.71150577 9.31676102 68.03725052 C9.31908598 69.60856046 9.32772894 71.17987682 9.34342575 72.75111008 C9.46874998 86.60487705 7.92181824 100.9156026 1.296875 113.3515625 C0.79305298 114.32609375 0.79305298 114.32609375 0.27905273 115.3203125 C-3.48428638 122.22471299 -8.5143915 127.61550312 -14.140625 133.0390625 C-14.87023437 133.78800781 -15.59984375 134.53695312 -16.3515625 135.30859375 C-29.42126492 148.01389927 -47.23072104 152.33951626 -64.95458984 152.28125 C-79.77671789 152.04242417 -91.26433646 148.19969179 -104.140625 141.0390625 C-104.800625 140.7090625 -105.460625 140.3790625 -106.140625 140.0390625 C-106.140625 139.3790625 -106.140625 138.7190625 -106.140625 138.0390625 C-106.87925781 137.78769531 -107.61789062 137.53632813 -108.37890625 137.27734375 C-111.34666055 135.94668164 -113.0518305 134.52927435 -115.328125 132.2265625 C-116.33939453 131.22689453 -116.33939453 131.22689453 -117.37109375 130.20703125 C-119.24799872 127.90751191 -120.18907965 125.8351419 -121.140625 123.0390625 C-121.800625 123.0390625 -122.460625 123.0390625 -123.140625 123.0390625 C-124.2459359 121.1979126 -125.32325971 119.33996704 -126.390625 117.4765625 C-126.99390625 116.44402344 -127.5971875 115.41148437 -128.21875 114.34765625 C-134.93002422 100.43101556 -134.79154508 86.09777105 -134.890625 70.9765625 C-134.91887794 68.87041929 -134.94881778 66.76429801 -134.98046875 64.65820312 C-135.05263844 59.47550489 -135.09615525 54.29316208 -135.1237793 49.11004639 C-135.1351027 47.04578141 -135.14897825 44.981529 -135.1652832 42.91729736 C-135.18872772 39.91752385 -135.20489302 36.91780024 -135.21875 33.91796875 C-135.22622253 33.02359604 -135.23369507 32.12922333 -135.24139404 31.20774841 C-135.25847901 23.53462336 -135.21888626 17.21532619 -130.140625 11.0390625 C-126.14831744 7.04675494 -122.64414845 6.71215975 -117.203125 6.5390625 C-111.22858224 6.74052232 -107.6776397 7.09383233 -103.140625 11.0390625 C-99.15353942 16.93355014 -97.99529747 22.7798337 -98.07470703 29.83227539 C-98.08934494 31.54544701 -98.08934494 31.54544701 -98.10427856 33.29322815 C-98.11885101 34.52033005 -98.13342346 35.74743195 -98.1484375 37.01171875 C-98.16596457 39.62955334 -98.1828718 42.24739215 -98.19921875 44.86523438 C-98.22886252 48.97723755 -98.26438522 53.08909187 -98.31201172 57.20092773 C-98.35738905 61.17946309 -98.37788248 65.15797641 -98.3984375 69.13671875 C-98.41705841 70.34965103 -98.43567932 71.56258331 -98.4548645 72.81227112 C-98.48776631 83.90099577 -97.19437386 93.26953689 -90.140625 102.0390625 C-90.140625 102.6990625 -90.140625 103.3590625 -90.140625 104.0390625 C-89.480625 104.0390625 -88.820625 104.0390625 -88.140625 104.0390625 C-86.80440255 105.36950044 -85.47158797 106.70336301 -84.140625 108.0390625 C-74.80698724 114.71031834 -65.19635924 115.44249673 -54.140625 114.0390625 C-46.03223313 112.28838698 -39.25209986 107.65481274 -34.60546875 100.76171875 C-33.3439325 98.55127184 -32.19608631 96.35453189 -31.140625 94.0390625 C-30.79837891 93.32298828 -30.45613281 92.60691406 -30.10351562 91.86914062 C-28.92532118 88.4062527 -28.78752574 85.164417 -28.7265625 81.546875 C-28.70724167 80.81636932 -28.68792084 80.08586365 -28.66801453 79.33322144 C-28.6078049 76.94362137 -28.56154145 74.55397633 -28.515625 72.1640625 C-28.47632629 70.50259236 -28.43652594 68.84113401 -28.39624023 67.1796875 C-28.21391368 59.17124398 -28.11225862 51.16674869 -28.15234375 43.15625 C-28.15538513 42.46226105 -28.15842651 41.76827209 -28.16156006 41.05325317 C-28.17858183 37.81118323 -28.21095941 34.57029309 -28.26513672 31.32861328 C-28.4750916 10.47980559 -28.4750916 10.47980559 -23.453125 3.9140625 C-16.69229798 -2.69907655 -8.50012192 -3.52524436 0 0 Z " fill="#CBC6E1" transform="translate(378.140625,184.9609375)"/>
<path d="M0 0 C2.53337641 1.73978862 4.5793754 3.46281885 6.59375 5.78125 C6.59375 6.44125 6.59375 7.10125 6.59375 7.78125 C7.25375 7.78125 7.91375 7.78125 8.59375 7.78125 C8.59375 8.44125 8.59375 9.10125 8.59375 9.78125 C9.25375 9.78125 9.91375 9.78125 10.59375 9.78125 C12.01177483 11.75624849 13.28544146 13.70082373 14.53125 15.78125 C14.8917041 16.37993896 15.2521582 16.97862793 15.62353516 17.59545898 C24.5568063 32.71094589 25.15795309 49.03257283 21.1328125 65.8359375 C17.88623535 77.55184635 9.48880477 88.78230882 -0.40625 95.78125 C-1.06625 95.78125 -1.72625 95.78125 -2.40625 95.78125 C-2.40625 96.44125 -2.40625 97.10125 -2.40625 97.78125 C-4.44601214 98.74363036 -6.48815046 99.70097527 -8.53125 100.65625 C-9.66820312 101.18992187 -10.80515625 101.72359375 -11.9765625 102.2734375 C-17.61991128 104.75445416 -22.62148932 106.07354448 -28.7734375 106.6328125 C-29.79281906 106.72844986 -29.79281906 106.72844986 -30.83279419 106.82601929 C-32.98172717 107.02610057 -35.1313976 107.2163303 -37.28125 107.40625 C-38.74745597 107.54101396 -40.21360269 107.6764243 -41.6796875 107.8125 C-45.25455389 108.14289173 -48.83014956 108.4644607 -52.40625 108.78125 C-52.42606934 109.68367432 -52.44588867 110.58609863 -52.46630859 111.51586914 C-52.54480165 114.89128758 -52.63150668 118.26629398 -52.72363281 121.64135742 C-52.76171427 123.09700518 -52.796602 124.55274037 -52.828125 126.00854492 C-52.87423255 128.11148148 -52.93214547 130.21382675 -52.9921875 132.31640625 C-53.0236084 133.578479 -53.0550293 134.84055176 -53.08740234 136.14086914 C-53.50423747 140.90000285 -54.11251949 145.21869237 -57.2109375 148.9609375 C-57.89414063 149.52039063 -58.57734375 150.07984375 -59.28125 150.65625 C-59.95929688 151.23117187 -60.63734375 151.80609375 -61.3359375 152.3984375 C-65.63732206 155.27143775 -70.3602751 155.16474409 -75.40625 154.78125 C-79.91200453 153.62861512 -82.43247136 151.31763541 -85.40625 147.78125 C-87.20893618 143.38753569 -87.67216877 139.61614527 -87.72509766 134.88745117 C-87.73514328 134.22447525 -87.7451889 133.56149933 -87.75553894 132.87843323 C-87.78631579 130.69370281 -87.80342991 128.50909713 -87.8203125 126.32421875 C-87.83907993 124.77841728 -87.8586572 123.23262545 -87.8789978 121.68684387 C-87.93030684 117.60796126 -87.96984905 113.52904368 -88.00714111 109.45001221 C-88.04656045 105.39301374 -88.09827 101.33617393 -88.1484375 97.27929688 C-88.25044005 88.80576878 -88.32868802 80.33217879 -88.3908844 71.85826874 C-88.40558588 69.87102158 -88.4214543 67.88378315 -88.43737793 65.89654541 C-88.46232583 62.47920001 -88.47922428 59.06194067 -88.4921875 55.64453125 C-88.49916656 54.68733688 -88.50614563 53.73014252 -88.51333618 52.74394226 C-88.54073467 32.83849335 -83.43746625 17.87869313 -69.27734375 3.640625 C-64.95808995 -0.21875 -64.95808995 -0.21875 -62.40625 -0.21875 C-62.40625 -0.87875 -62.40625 -1.53875 -62.40625 -2.21875 C-60.72176982 -3.01682198 -59.03348873 -3.80687301 -57.34375 -4.59375 C-56.40402344 -5.03460938 -55.46429688 -5.47546875 -54.49609375 -5.9296875 C-36.10875281 -13.60076526 -16.58370842 -9.8075695 0 0 Z M-47.09375 30.96875 C-53.70036082 39.00381721 -54.62045591 46.62067092 -54.71875 56.71875 C-54.74775391 57.70810547 -54.77675781 58.69746094 -54.80664062 59.71679688 C-54.84384058 63.97189886 -54.74799744 67.03695908 -52.95703125 70.9375 C-49.15653305 73.68456761 -45.86183578 73.49085335 -41.28125 73.34375 C-40.42901855 73.32860352 -39.57678711 73.31345703 -38.69873047 73.29785156 C-30.25804781 72.99818236 -22.39797883 71.11536334 -16.40625 64.78125 C-12.30331964 58.35215684 -9.42924599 52.59728211 -10.40625 44.78125 C-12.54330996 37.90549188 -16.0362357 32.16491865 -21.96875 27.96875 C-30.54034128 23.79284655 -39.71914451 24.96616414 -47.09375 30.96875 Z " fill="#60B86F" transform="translate(215.40625,184.21875)"/>
<path d="M0 0 C4.85117146 2.35718526 6.98585578 6.49602161 8.67578125 11.375 C9.99538452 16.29976659 9.80197149 21.21227849 9.7734375 26.26953125 C9.77202255 27.21688644 9.7706076 28.16424164 9.76914978 29.14030457 C9.76356736 32.15606895 9.75101807 35.17175818 9.73828125 38.1875 C9.73326398 40.23632705 9.72870147 42.28515527 9.72460938 44.33398438 C9.71360368 49.34768506 9.69635113 54.3613298 9.67578125 59.375 C9.01578125 59.375 8.35578125 59.375 7.67578125 59.375 C7.52109375 60.2103125 7.52109375 60.2103125 7.36328125 61.0625 C5.49599007 67.34338853 0.68503506 72.33024356 -3.32421875 77.375 C-3.79472656 78.00664062 -4.26523437 78.63828125 -4.75 79.2890625 C-6.01171875 80.9375 -6.01171875 80.9375 -8.32421875 83.375 C-9.64421875 83.375 -10.96421875 83.375 -12.32421875 83.375 C-12.32421875 84.035 -12.32421875 84.695 -12.32421875 85.375 C-17.27695622 87.35609499 -21.08562233 87.46158837 -26.32421875 87.375 C-26.47001431 80.79954992 -26.61194245 74.22402364 -26.75146484 67.6484375 C-26.79912462 65.42218232 -26.84759688 63.19594435 -26.89697266 60.96972656 C-27.15349749 49.37899218 -27.37429885 37.78905652 -27.41796875 26.1953125 C-27.42445435 25.30464081 -27.43093994 24.41396912 -27.43762207 23.49630737 C-27.4431507 15.84256133 -27.38823985 9.53394458 -22.32421875 3.375 C-16.56825617 -2.38096258 -7.50370751 -2.0178037 0 0 Z " fill="#F7E226" transform="translate(270.32421875,192.625)"/>
<path d="M0 0 C5.48051003 2.76940666 9.02056447 6.83152301 10.9765625 12.66796875 C12.11289476 18.96235823 9.98105174 23.88552024 7.25 29.5 C6.59 29.5 5.93 29.5 5.25 29.5 C5.04375 30.0775 4.8375 30.655 4.625 31.25 C2.35995741 34.95643333 -0.63920765 36.91278709 -4.828125 38.078125 C-11.90343148 39.21611136 -17.84198083 37.43867945 -23.75 33.5 C-23.75 32.84 -23.75 32.18 -23.75 31.5 C-24.41 31.5 -25.07 31.5 -25.75 31.5 C-28.87152985 25.38700403 -29.97144413 20.00211778 -28.140625 13.25390625 C-26.98955862 10.05323699 -25.63802891 7.33204337 -23.75 4.5 C-23.09 4.5 -22.43 4.5 -21.75 4.5 C-21.75 3.84 -21.75 3.18 -21.75 2.5 C-14.6809946 -2.41756898 -8.12333475 -3.06334509 0 0 Z " fill="#FCEA2E" transform="translate(269.75,140.5)"/>
<path d="M0 0 C0.99 0.495 0.99 0.495 2 1 C2.57678022 2.95816886 3.06369964 4.9433228 3.5 6.9375 C4.35177899 11.44735421 4.35177899 11.44735421 7 15 C7.2475 16.11375 7.495 17.2275 7.75 18.375 C9.28177719 22.81715385 10.83670985 23.96083748 15 26 C15.99 25.67 16.98 25.34 18 25 C17.34 26.98 16.68 28.96 16 31 C16.639375 31.226875 17.27875 31.45375 17.9375 31.6875 C20 33 20 33 20.75 35.625 C20.87375 36.800625 20.87375 36.800625 21 38 C21.556875 38.0825 22.11375 38.165 22.6875 38.25 C25 39 25 39 27.5 41.0625 C29.99979416 43.40838111 29.99979416 43.40838111 34 43 C35.01553011 44.32154318 36.01450261 45.65591196 37 47 C39.13840692 47.97836897 39.13840692 47.97836897 41.5625 48.5 C44.15477197 49.14700384 46.58184204 49.79452051 48.98535156 50.97558594 C57.04916455 54.81533493 64.92143088 54.45488082 73.625 54.25 C75.12106968 54.22989241 76.61716564 54.21164921 78.11328125 54.1953125 C81.74274238 54.15168115 85.37119819 54.08289303 89 54 C80.07665511 59.9488966 63.12837076 57.72825395 52.875 56 C44.15302135 54.19605662 36.73550759 50.30179101 29 46 C28.34 45.67 27.68 45.34 27 45 C27 44.34 27 43.68 27 43 C25.89205078 42.62294922 25.89205078 42.62294922 24.76171875 42.23828125 C21.79396445 40.90761914 20.0887945 39.49021185 17.8125 37.1875 C17.13832031 36.52105469 16.46414063 35.85460937 15.76953125 35.16796875 C13.89262628 32.86844941 12.95154535 30.7960794 12 28 C11.34 28 10.68 28 10 28 C4.85452371 19.2597389 0 10.44217558 0 0 Z " fill="#8296A4" transform="translate(245,280)"/>
<path d="M0 0 C6.12154264 0.11278175 9.66485242 0.33356732 14.3125 4.375 C19.2062013 11.60982384 19.45798202 18.79307814 19.41015625 27.26953125 C19.4087413 28.21688644 19.40732635 29.16424164 19.40586853 30.14030457 C19.40028611 33.15606895 19.38773682 36.17175818 19.375 39.1875 C19.36998273 41.23632705 19.36542022 43.28515527 19.36132812 45.33398438 C19.35032243 50.34768506 19.33306988 55.3613298 19.3125 60.375 C18.6525 60.375 17.9925 60.375 17.3125 60.375 C17.209375 60.931875 17.10625 61.48875 17 62.0625 C16.17238599 64.84629258 14.93512248 66.97351873 13.3125 69.375 C12.3225 69.87 12.3225 69.87 11.3125 70.375 C11.60125 69.818125 11.89 69.26125 12.1875 68.6875 C12.55875 67.924375 12.93 67.16125 13.3125 66.375 C13.65949951 65.70815186 14.00649902 65.04130371 14.36401367 64.35424805 C15.73903553 60.03522829 15.61771162 55.90139699 15.61328125 51.39453125 C15.61756638 50.4265007 15.6218515 49.45847015 15.62626648 48.46110535 C15.63200103 46.41442647 15.63251649 44.36772722 15.62817383 42.32104492 C15.62502848 39.21562124 15.64843341 36.11116437 15.67382812 33.00585938 C15.6761029 31.01041786 15.67680379 29.0149738 15.67578125 27.01953125 C15.684991 26.10250931 15.69420074 25.18548737 15.70368958 24.24067688 C15.66055464 18.11861968 15.12434753 11.91666797 12.3125 6.375 C8.81906314 4.67255893 8.81906314 4.67255893 5.3125 4.375 C4.9825 4.045 4.6525 3.715 4.3125 3.375 C2.12957226 3.14018307 -0.05953174 2.96136677 -2.25 2.8125 C-4.04630859 2.68681641 -4.04630859 2.68681641 -5.87890625 2.55859375 C-6.80574219 2.49800781 -7.73257813 2.43742188 -8.6875 2.375 C-5.86691097 -0.44558903 -3.93532628 0.04182068 0 0 Z " fill="#C7DA60" transform="translate(260.6875,191.625)"/>
<path d="M0 0 C9.72366385 -1.17354564 17.66937358 3.23970143 25.453125 8.73046875 C27.375 10.3125 27.375 10.3125 30 13 C30 13.66 30 14.32 30 15 C30.66 15 31.32 15 32 15 C32 15.66 32 16.32 32 17 C32.66 17 33.32 17 34 17 C35.41794472 18.97488691 36.69109363 20.92009319 37.9375 23 C38.297229 23.59361328 38.65695801 24.18722656 39.02758789 24.79882812 C44.04428986 33.24462453 46.13906219 40.80181162 46.1875 50.625 C46.20167969 51.93726563 46.21585938 53.24953125 46.23046875 54.6015625 C46 58 46 58 44 61 C44 56.38 44 51.76 44 47 C43.34 47 42.68 47 42 47 C41.87625 45.989375 41.7525 44.97875 41.625 43.9375 C39.9430099 33.34096237 36.61121434 24.55201091 28 18 C27.525625 17.175 27.05125 16.35 26.5625 15.5 C23.86245959 11.17993535 19.94761626 8.53870237 15.0625 7.1875 C14.0415625 7.0946875 14.0415625 7.0946875 13 7 C13 6.34 13 5.68 13 5 C12.443125 5.2475 11.88625 5.495 11.3125 5.75 C9 6 9 6 6.5 4.1875 C5.675 3.465625 4.85 2.74375 4 2 C2.68130848 1.30482023 1.35005317 0.63212235 0 0 Z " fill="#74C594" transform="translate(192,177)"/>
<path d="M0 0 C0.33 0.66 0.66 1.32 1 2 C0.07806834 4.10550923 -0.89464058 6.18881579 -1.88720703 8.26196289 C-6.19233772 18.2239747 -5.8577192 28.12506971 -5.8046875 38.80859375 C-5.81596145 40.87225381 -5.82985237 42.93590105 -5.84622192 44.99952698 C-5.88199196 50.38025642 -5.8826676 55.76041459 -5.87554932 61.14123535 C-5.87463092 66.65220106 -5.90757253 72.16295888 -5.9375 77.67382812 C-5.99111012 88.44927869 -6.00757462 99.22443063 -6 110 C-5.34 110.33 -4.68 110.66 -4 111 C-4.02320313 112.01320313 -4.04640625 113.02640625 -4.0703125 114.0703125 C-4.0890841 115.42186758 -4.1072828 116.77343069 -4.125 118.125 C-4.14175781 118.79015625 -4.15851563 119.4553125 -4.17578125 120.140625 C-4.21847278 124.49516056 -3.59996217 127.95600114 -2 132 C-5.69922911 129.53384726 -5.93301198 128.23738233 -7 124 C-7.2784729 120.71330261 -7.2784729 120.71330261 -7.31884766 117.10620117 C-7.32889328 116.44322525 -7.3389389 115.78024933 -7.34928894 115.09718323 C-7.38006579 112.91245281 -7.39717991 110.72784713 -7.4140625 108.54296875 C-7.43282993 106.99716728 -7.4524072 105.45137545 -7.4727478 103.90559387 C-7.52405684 99.82671126 -7.56359905 95.74779368 -7.60089111 91.66876221 C-7.64031045 87.61176374 -7.69202 83.55492393 -7.7421875 79.49804688 C-7.84419005 71.02451878 -7.92243802 62.55092879 -7.9846344 54.07701874 C-7.99933588 52.08977158 -8.0152043 50.10253315 -8.03112793 48.11529541 C-8.05607583 44.69795001 -8.07297428 41.28069067 -8.0859375 37.86328125 C-8.09291656 36.90608688 -8.09989563 35.94889252 -8.10708618 34.96269226 C-8.12010123 25.50705127 -7.85877051 16.6118389 -4 7.875 C-3.72671875 7.21757812 -3.4534375 6.56015625 -3.171875 5.8828125 C-1.19676339 1.19676339 -1.19676339 1.19676339 0 0 Z " fill="#247A45" transform="translate(135,202)"/>
<path d="M0 0 C2.85213914 2.95048877 3 3.71100137 3 8 C2.01 8.33 1.02 8.66 0 9 C-0.33 8.34 -0.66 7.68 -1 7 C-4.89415629 5.47998351 -4.89415629 5.47998351 -9 5 C-9 5.66 -9 6.32 -9 7 C-10.85625 6.9690625 -10.85625 6.9690625 -12.75 6.9375 C-15.6640825 6.93233319 -18.20953327 7.06984442 -21 8 C-20.42462844 4.11624195 -18.66963729 1.82218799 -16 -1 C-11.04486796 -3.22126609 -4.66765137 -2.59313965 0 0 Z " fill="#E5E4F4" transform="translate(377,185)"/>
<path d="M0 0 C5.48051003 2.76940666 9.02056447 6.83152301 10.9765625 12.66796875 C12.11289476 18.96235823 9.98105174 23.88552024 7.25 29.5 C6.17825237 25.84811918 6.48588533 23.23567172 7.25 19.5 C7.58 19.5 7.91 19.5 8.25 19.5 C8.57165425 14.63241319 8.57165425 14.63241319 7 10.125 C5.07045747 8.33328193 3.83148508 7.85606691 1.25 7.5 C1.25 6.51 1.25 5.52 1.25 4.5 C0.486875 4.37625 -0.27625 4.2525 -1.0625 4.125 C-3.75 3.5 -3.75 3.5 -6.75 1.5 C-11.93149613 1.39461364 -17.09078815 2.17039408 -21.75 4.5 C-21.75 3.84 -21.75 3.18 -21.75 2.5 C-14.6809946 -2.41756898 -8.12333475 -3.06334509 0 0 Z " fill="#C4E178" transform="translate(269.75,140.5)"/>
<path d="M0 0 C0.66 0.33 1.32 0.66 2 1 C1.38125 1.9075 0.7625 2.815 0.125 3.75 C-3.23473405 8.88841678 -4.29948791 12.18260192 -4.31884766 18.33886719 C-4.33391609 19.43702003 -4.33391609 19.43702003 -4.34928894 20.55735779 C-4.3801113 22.97052241 -4.39715324 25.38357613 -4.4140625 27.796875 C-4.43277493 29.47268629 -4.4523484 31.14848818 -4.4727478 32.82427979 C-4.52406715 37.23006642 -4.5636939 41.6358836 -4.60089111 46.04180908 C-4.640932 50.53966833 -4.69202396 55.03740052 -4.7421875 59.53515625 C-4.83894443 68.35668158 -4.92334997 77.17827865 -5 86 C-5.33 86 -5.66 86 -6 86 C-6.14579556 79.42454992 -6.2877237 72.84902364 -6.42724609 66.2734375 C-6.47490587 64.04718232 -6.52337813 61.82094435 -6.57275391 59.59472656 C-6.82927874 48.00399218 -7.0500801 36.41405652 -7.09375 24.8203125 C-7.1002356 23.92964081 -7.10672119 23.03896912 -7.11340332 22.12130737 C-7.11901648 14.35054924 -6.89960628 8.38433545 -2 2 C-1.34 1.34 -0.68 0.68 0 0 Z " fill="#7C8F21" transform="translate(250,194)"/>
<path d="M0 0 C4.38663335 2.87073414 8.25504555 5.95617888 10.18359375 10.93359375 C12.50219687 25.9363198 12.50219687 25.9363198 9.18359375 30.93359375 C8.52359375 30.93359375 7.86359375 30.93359375 7.18359375 30.93359375 C7.34859375 30.10859375 7.51359375 29.28359375 7.68359375 28.43359375 C9.03428742 18.97873806 7.57875491 12.97157483 2.24609375 5.05859375 C-2.21601331 0.46127133 -6.84215669 -1.18240804 -13.12890625 -1.31640625 C-17.71611595 -1.28617752 -20.71435099 -0.03539277 -24.81640625 1.93359375 C-25.80640625 1.93359375 -26.79640625 1.93359375 -27.81640625 1.93359375 C-19.0033973 -5.84259062 -9.85583168 -5.78632699 0 0 Z " fill="#227D40" transform="translate(195.81640625,212.06640625)"/>
<path d="M0 0 C0.99 0.495 0.99 0.495 2 1 C2.57678022 2.95816886 3.06369964 4.9433228 3.5 6.9375 C4.35177899 11.44735421 4.35177899 11.44735421 7 15 C7.2475 16.11375 7.495 17.2275 7.75 18.375 C9.28177719 22.81715385 10.83670985 23.96083748 15 26 C15.99 25.67 16.98 25.34 18 25 C17.34 26.98 16.68 28.96 16 31 C16.639375 31.2475 17.27875 31.495 17.9375 31.75 C20 33 20 33 20.75 35.125 C20.87375 36.053125 20.87375 36.053125 21 37 C18.66471585 36.82701599 17.30822418 36.29774631 15.62109375 34.66796875 C12 30.42788462 12 30.42788462 12 28 C11.34 28 10.68 28 10 28 C4.85452371 19.2597389 0 10.44217558 0 0 Z " fill="#90A0AF" transform="translate(245,280)"/>
<path d="M0 0 C0.66 0.33 1.32 0.66 2 1 C2 1.66 2 2.32 2 3 C2.99 3 3.98 3 5 3 C3.47735451 7.26340736 0.93320826 8.92612655 -3 11 C-9.35311025 12.76740661 -15.12253641 11.97808981 -21 9 C-21.33 8.34 -21.66 7.68 -22 7 C-21.319375 7.165 -20.63875 7.33 -19.9375 7.5 C-14.47200418 8.43029716 -10.02679552 8.44546809 -5 6 C-4.236875 5.62875 -3.47375 5.2575 -2.6875 4.875 C-1.8521875 4.441875 -1.8521875 4.441875 -1 4 C-1.33 3.01 -1.66 2.02 -2 1 C-1.34 0.67 -0.68 0.34 0 0 Z " fill="#EFE532" transform="translate(270,167)"/>
<path d="M0 0 C-2.03976214 0.96238036 -4.08190046 1.91972527 -6.125 2.875 C-7.26195312 3.40867187 -8.39890625 3.94234375 -9.5703125 4.4921875 C-15.21895615 6.97553197 -20.1675511 8.28024567 -26.33203125 8.78125 C-27.72071006 8.90226416 -29.10938174 9.02336024 -30.49804688 9.14453125 C-32.66832032 9.32491376 -34.8388174 9.50212317 -37.00952148 9.67724609 C-39.1177741 9.84991797 -41.22482465 10.03381458 -43.33203125 10.21875 C-44.58733643 10.32123047 -45.8426416 10.42371094 -47.13598633 10.52929688 C-48.5536731 10.76229492 -48.5536731 10.76229492 -50 11 C-50.33 11.66 -50.66 12.32 -51 13 C-51 11.68 -51 10.36 -51 9 C-45.20123248 6.50912048 -39.56939303 6.71751057 -33.375 6.625 C-22.81691023 6.33185178 -14.90895807 5.006312 -5.4375 0.1875 C-3 -1 -3 -1 0 0 Z " fill="#287D45" transform="translate(213,282)"/>
<path d="M0 0 C2.68475092 2.34723938 3.84717014 4.56471634 5.125 7.875 C5.45757812 8.71804687 5.79015625 9.56109375 6.1328125 10.4296875 C7.85950265 15.54753488 8.16087051 20.22453975 8.1875 25.625 C8.20167969 26.93726563 8.21585938 28.24953125 8.23046875 29.6015625 C8 33 8 33 6 36 C6 31.38 6 26.76 6 22 C5.34 22 4.68 22 4 22 C3.87625 20.989375 3.7525 19.97875 3.625 18.9375 C3.02475361 15.15594776 2.10520489 11.6609912 1 8 C0.14420154 5.00470537 0 3.2591246 0 0 Z " fill="#6FBE81" transform="translate(230,202)"/>
<path d="M0 0 C0.66 0.33 1.32 0.66 2 1 C1.54965877 2.62723299 1.08944646 4.25173664 0.625 5.875 C0.36976563 6.77992188 0.11453125 7.68484375 -0.1484375 8.6171875 C-1 11 -1 11 -3 13 C-3.6425235 15.06874034 -3.6425235 15.06874034 -4 17 C-3.34 17 -2.68 17 -2 17 C0.20536179 21.0271824 1.45660208 24.43545749 2 29 C1.34 29 0.68 29 0 29 C0 28.34 0 27.68 0 27 C-0.66 27 -1.32 27 -2 27 C-5.12152985 20.88700403 -6.22144413 15.50211778 -4.390625 8.75390625 C-3.23955862 5.55323699 -1.88802891 2.83204337 0 0 Z " fill="#799222" transform="translate(246,145)"/>
<path d="M0 0 C13.2 0 26.4 0 40 0 C34.48527295 3.6764847 27.75825565 3.19302454 21.3125 3.1875 C20.1380835 3.1884668 20.1380835 3.1884668 18.93994141 3.18945312 C12.48987611 3.13126102 6.30701909 2.38507086 0 1 C0 0.67 0 0.34 0 0 Z " fill="#5E7E87" transform="translate(294,334)"/>
<path d="M0 0 C0.75 1.75 0.75 1.75 1 4 C-0.28965176 5.37562854 -1.62689293 6.70766393 -3 8 C-3.71447643 10.10332891 -3.71447643 10.10332891 -4 12 C-4.33 12.33 -4.66 12.66 -5 13 C-4.67 13.99 -4.34 14.98 -4 16 C-5.07107117 16.86949317 -6.15745944 17.72014205 -7.25 18.5625 C-7.85328125 19.03816406 -8.4565625 19.51382812 -9.078125 20.00390625 C-11 21 -11 21 -13.234375 20.65234375 C-13.81703125 20.43707031 -14.3996875 20.22179687 -15 20 C-14.39671875 19.26394531 -13.7934375 18.52789062 -13.171875 17.76953125 C-12.37265625 16.79371094 -11.5734375 15.81789063 -10.75 14.8125 C-9.96109375 13.84957031 -9.1721875 12.88664062 -8.359375 11.89453125 C-7.58078125 10.93933594 -6.8021875 9.98414063 -6 9 C-5.2678125 8.1028125 -4.535625 7.205625 -3.78125 6.28125 C-2.18797638 4.24074168 -1.04737325 2.35658981 0 0 Z " fill="#C2C1D8" transform="translate(277,255)"/>
<path d="M0 0 C-0.33 1.32 -0.66 2.64 -1 4 C-1.99 4 -2.98 4 -4 4 C-4 4.66 -4 5.32 -4 6 C-5.85625 5.9690625 -5.85625 5.9690625 -7.75 5.9375 C-10.6640825 5.93233319 -13.20953327 6.06984442 -16 7 C-15.42655063 4.13275314 -15.1385485 3.1385485 -13 1 C-8.68972272 -0.26772861 -4.45126889 -0.07544524 0 0 Z " fill="#DDD8EF" transform="translate(372,186)"/>
<path d="M0 0 C6.09183659 0.09362454 9.59908602 0.49952628 14.3125 4.375 C17.3125 8.43951613 17.3125 8.43951613 17.3125 11.375 C16.6525 11.375 15.9925 11.375 15.3125 11.375 C15.2403125 10.74980469 15.168125 10.12460938 15.09375 9.48046875 C14.51596041 7.18728508 14.51596041 7.18728508 12.28125 6.36328125 C11.4665625 6.14027344 10.651875 5.91726562 9.8125 5.6875 C5.36548013 4.42798013 5.36548013 4.42798013 4.3125 3.375 C2.12957226 3.14018307 -0.05953174 2.96136677 -2.25 2.8125 C-4.04630859 2.68681641 -4.04630859 2.68681641 -5.87890625 2.55859375 C-6.80574219 2.49800781 -7.73257813 2.43742188 -8.6875 2.375 C-5.86691097 -0.44558903 -3.93532628 0.04182068 0 0 Z " fill="#BEDB67" transform="translate(260.6875,191.625)"/>
<path d="M0 0 C0.33 0 0.66 0 1 0 C1.04898437 1.05058594 1.09796875 2.10117188 1.1484375 3.18359375 C1.4989065 9.97686466 1.8738905 16.48415231 3.58984375 23.09375 C4.23638604 26.09863225 4.13028265 28.93835784 4 32 C-0.5099093 26.67010719 -1.26458054 21.40865299 -1.1875 14.5625 C-1.18105469 13.30566406 -1.17460937 12.04882812 -1.16796875 10.75390625 C-1.00367008 7.0820221 -0.58434127 3.62291586 0 0 Z " fill="#CCE3EC" transform="translate(278,252)"/>
<path d="M0 0 C0.33 0 0.66 0 1 0 C1 7.59 1 15.18 1 23 C1.66 23 2.32 23 3 23 C6 26.46153846 6 26.46153846 6 29 C12.27 29 18.54 29 25 29 C25 29.33 25 29.66 25 30 C21.58362047 30.11632513 18.16775103 30.18728897 14.75 30.25 C13.78191406 30.28351563 12.81382812 30.31703125 11.81640625 30.3515625 C10.41455078 30.37089844 10.41455078 30.37089844 8.984375 30.390625 C8.12553711 30.41157227 7.26669922 30.43251953 6.38183594 30.45410156 C3.0859056 29.82572616 1.96038193 28.69580457 0 26 C-0.45410156 23.15917969 -0.45410156 23.15917969 -0.390625 19.921875 C-0.37773437 18.76171875 -0.36484375 17.6015625 -0.3515625 16.40625 C-0.31804687 15.1996875 -0.28453125 13.993125 -0.25 12.75 C-0.22292969 10.91695312 -0.22292969 10.91695312 -0.1953125 9.046875 C-0.148181 6.03045922 -0.08239413 3.01562509 0 0 Z " fill="#76CB90" transform="translate(159,229)"/>
<path d="M0 0 C0.33 0.66 0.66 1.32 1 2 C1.66 2.33 2.32 2.66 3 3 C-4.22252339 10.7538807 -12.59829311 17.97139056 -23 21 C-23.99 20.67 -24.98 20.34 -26 20 C-24.85660156 19.45730469 -23.71320313 18.91460937 -22.53515625 18.35546875 C-21.04401374 17.63334313 -19.55314221 16.91065778 -18.0625 16.1875 C-17.30775391 15.83107422 -16.55300781 15.47464844 -15.77539062 15.10742188 C-15.05673828 14.75615234 -14.33808594 14.40488281 -13.59765625 14.04296875 C-12.93258057 13.72352295 -12.26750488 13.40407715 -11.58227539 13.07495117 C-9.6648616 12.00627741 -9.6648616 12.00627741 -9 9 C-7.35 8.67 -5.7 8.34 -4 8 C-3.67 7.01 -3.34 6.02 -3 5 C-2.67 4.34 -2.34 3.68 -2 3 C-1.34 3 -0.68 3 0 3 C0 2.01 0 1.02 0 0 Z " fill="#729DA7" transform="translate(364,312)"/>
<path d="M0 0 C-0.33 1.65 -0.66 3.3 -1 5 C-10.57 4.67 -20.14 4.34 -30 4 C-30 3.67 -30 3.34 -30 3 C-28.19015625 2.94392578 -28.19015625 2.94392578 -26.34375 2.88671875 C-24.72913822 2.82100781 -23.11455622 2.75456229 -21.5 2.6875 C-20.31277344 2.65366211 -20.31277344 2.65366211 -19.1015625 2.61914062 C-14.94800342 2.43189001 -11.52364709 1.97037 -7.65625 0.39453125 C-4.00627001 -0.99760855 -3.42752524 -1.13605267 0 0 Z " fill="#9DBBC7" transform="translate(336,297)"/>
<path d="M0 0 C0.33 0 0.66 0 1 0 C1.03758423 1.64198364 1.03758423 1.64198364 1.07592773 3.31713867 C1.17030008 7.38935483 1.27044731 11.46141226 1.37231445 15.53344727 C1.41555069 17.29382608 1.4572335 19.05424378 1.49731445 20.81469727 C1.55529185 23.34924013 1.61890627 25.88358934 1.68359375 28.41796875 C1.70866249 29.59325386 1.70866249 29.59325386 1.73423767 30.7922821 C1.81697763 33.86368698 1.95652967 36.78651732 2.57055664 39.80200195 C3.2357487 43.20662056 2.1684302 45.80219104 1 49 C0.01 49.495 0.01 49.495 -1 50 C-0.67 33.5 -0.34 17 0 0 Z " fill="#DCD9EE" transform="translate(384,231)"/>
<path d="M0 0 C0.33 0 0.66 0 1 0 C1.14285714 8.57142857 1.14285714 8.57142857 0 12 C-0.99 12 -1.98 12 -3 12 C-2.67 12.99 -2.34 13.98 -2 15 C-4.25 17.0625 -4.25 17.0625 -7 19 C-9.171875 18.62109375 -9.171875 18.62109375 -11 18 C-10.61328125 17.59910156 -10.2265625 17.19820313 -9.828125 16.78515625 C-5.65686407 12.2318739 -3.26732664 7.70901222 -1 2 C-0.67 1.34 -0.34 0.68 0 0 Z " fill="#B9C2D5" transform="translate(349,274)"/>
<path d="M0 0 C0.99 0.33 1.98 0.66 3 1 C1.43068991 3.01255034 -0.15366979 5.00907131 -1.75 7 C-2.1934375 7.57234375 -2.636875 8.1446875 -3.09375 8.734375 C-4.421875 10.375 -4.421875 10.375 -7 13 C-8.32 13 -9.64 13 -11 13 C-11 13.66 -11 14.32 -11 15 C-11.99 14.67 -12.98 14.34 -14 14 C-13.34 13.01 -12.68 12.02 -12 11 C-11.34 11 -10.68 11 -10 11 C-9.731875 10.401875 -9.46375 9.80375 -9.1875 9.1875 C-8.01506533 7.02775192 -6.80630718 5.64209744 -5 4 C-4.01 4.33 -3.02 4.66 -2 5 C-2 4.01 -2 3.02 -2 2 C-1.34 2 -0.68 2 0 2 C0 1.34 0 0.68 0 0 Z " fill="#EEDF3E" transform="translate(269,263)"/>
<path d="M0 0 C2.27505004 2.16671432 4.23575092 4.39563231 6 7 C6 7.66 6 8.32 6 9 C6.66 9 7.32 9 8 9 C9.37701298 10.28817344 10.70644173 11.62804426 12 13 C12.5775 13.5775 13.155 14.155 13.75 14.75 C14.1625 15.1625 14.575 15.575 15 16 C11.28925696 16.54569751 10.08249126 16.05723884 6.9375 13.875 C3.29968592 10.54738712 0.19058378 7.19171351 -0.25 2.125 C-0.1675 1.42375 -0.085 0.7225 0 0 Z " fill="#AED5D7" transform="translate(282,280)"/>
<path d="M0 0 C1.17175781 0.04640625 2.34351563 0.0928125 3.55078125 0.140625 C5.32001953 0.19476563 5.32001953 0.19476563 7.125 0.25 C8.48044922 0.31960937 8.48044922 0.31960937 9.86328125 0.390625 C8.57362949 1.76625354 7.23638832 3.09828893 5.86328125 4.390625 C5.20328125 4.390625 4.54328125 4.390625 3.86328125 4.390625 C3.86328125 5.050625 3.86328125 5.710625 3.86328125 6.390625 C2.21328125 6.390625 0.56328125 6.390625 -1.13671875 6.390625 C-1.13671875 5.400625 -1.13671875 4.410625 -1.13671875 3.390625 C-2.78671875 3.720625 -4.43671875 4.050625 -6.13671875 4.390625 C-4.39021305 1.18764703 -3.70818582 0.46179151 0 0 Z " fill="#F3E334" transform="translate(255.13671875,193.609375)"/>
<path d="M0 0 C-1 3 -1 3 -4.34375 4.75390625 C-5.72459428 5.36717139 -7.11027459 5.96963549 -8.5 6.5625 C-13.54997668 8.3386767 -13.54997668 8.3386767 -17 12 C-18.65 12 -20.3 12 -22 12 C-18.36166158 7.53476648 -13.28532709 5.06669841 -8 3 C-6.68 3 -5.36 3 -4 3 C-4 2.34 -4 1.68 -4 1 C-2 0 -2 0 0 0 Z " fill="#B4BFD3" transform="translate(355,322)"/>
<path d="M0 0 C0.66 0.33 1.32 0.66 2 1 C2 1.66 2 2.32 2 3 C1.34 3 0.68 3 0 3 C0 3.66 0 4.32 0 5 C0.66 5.33 1.32 5.66 2 6 C1.01 7.485 1.01 7.485 0 9 C1.32 9.33 2.64 9.66 4 10 C4 10.99 4 11.98 4 13 C2.35 12.67 0.7 12.34 -1 12 C-1.33 11.01 -1.66 10.02 -2 9 C-2.66 9 -3.32 9 -4 9 C-3.46930939 5.17902761 -2.50298434 2.93828597 0 0 Z " fill="#F5E723" transform="translate(246,153)"/>
<path d="M0 0 C13.365 0.495 13.365 0.495 27 1 C27 1.33 27 1.66 27 2 C21.90663745 3.01703214 16.98461967 3.21644205 11.8125 3.25 C11.00619141 3.270625 10.19988281 3.29125 9.36914062 3.3125 C8.20608398 3.32023437 8.20608398 3.32023437 7.01953125 3.328125 C6.31932861 3.3374707 5.61912598 3.34681641 4.89770508 3.35644531 C3 3 3 3 0 0 Z " fill="#D8E7F5" transform="translate(301,300)"/>
<path d="M0 0 C1.44921875 1.00390625 1.44921875 1.00390625 3 3 C3.43305894 5.71751749 3.69274425 8.20755761 3.8125 10.9375 C3.86341797 11.65357422 3.91433594 12.36964844 3.96679688 13.10742188 C4.17636942 16.94011307 4.18960669 19.76208741 2 23 C1.34 23 0.68 23 0 23 C0.165 22.175 0.33 21.35 0.5 20.5 C1.49311558 13.54819093 0.89706835 6.92024159 0 0 Z " fill="#2A7B44" transform="translate(203,220)"/>
<path d="M0 0 C0.99 0.495 0.99 0.495 2 1 C2.57678022 2.95816886 3.06369964 4.9433228 3.5 6.9375 C4.35177899 11.44735421 4.35177899 11.44735421 7 15 C7.67258667 17.33163378 8.33847444 19.6652039 9 22 C9.95564988 24.02156704 10.94274747 26.02966574 12 28 C11.34 28 10.68 28 10 28 C4.85452371 19.2597389 0 10.44217558 0 0 Z " fill="#547A7E" transform="translate(245,280)"/>
<path d="M0 0 C3.03163448 2.59854384 4.57824678 5.27636062 6 9 C6.24038 12.35029625 6.17887272 15.64779278 6 19 C5.67 19 5.34 19 5 19 C4.80664062 18.30132812 4.61328125 17.60265625 4.4140625 16.8828125 C4.15367187 15.97273437 3.89328125 15.06265625 3.625 14.125 C3.36976563 13.22007812 3.11453125 12.31515625 2.8515625 11.3828125 C2.1395685 8.85430274 2.1395685 8.85430274 0 7 C-0.125 3.375 -0.125 3.375 0 0 Z " fill="#6AC588" transform="translate(230,202)"/>
<path d="M0 0 C0.66386719 0.15339844 1.32773438 0.30679688 2.01171875 0.46484375 C5.60155922 1.10773021 9.17795419 1.35033991 12.8125 1.5625 C13.85180664 1.62727539 13.85180664 1.62727539 14.91210938 1.69335938 C16.60788686 1.79861453 18.30392052 1.89972863 20 2 C19.67 2.66 19.34 3.32 19 4 C12.75235385 5.85476995 6.75721095 4.91715823 1 2 C0.67 1.34 0.34 0.68 0 0 Z " fill="#7A962A" transform="translate(248,174)"/>
<path d="M0 0 C4.50289035 1.25662056 7.5433334 2.83961911 11 6 C11.33 6.66 11.66 7.32 12 8 C13.64142963 9.0409066 15.30712215 10.04504326 17 11 C13.30581799 11 11.22163822 9.71820705 8 8 C8 7.34 8 6.68 8 6 C7.236875 5.7525 6.47375 5.505 5.6875 5.25 C2.7635955 3.89004442 1.69995644 2.68414174 0 0 Z " fill="#5D7D87" transform="translate(264,317)"/>
<path d="M0 0 C1.32 0.33 2.64 0.66 4 1 C4 1.66 4 2.32 4 3 C11.92 2.505 11.92 2.505 20 2 C19 4 19 4 17.4375 4.625 C11.99997113 5.4615429 6.89633972 5.73618984 2 3 C1.34 2.01 0.68 1.02 0 0 Z " fill="#2B8847" transform="translate(133,334)"/>
<path d="M0 0 C0.66 0.66 1.32 1.32 2 2 C1.04738281 2.12117187 0.09476562 2.24234375 -0.88671875 2.3671875 C-2.14097656 2.53476563 -3.39523437 2.70234375 -4.6875 2.875 C-5.92886719 3.03742188 -7.17023438 3.19984375 -8.44921875 3.3671875 C-11.57795295 3.92478369 -14.12148102 4.69008123 -17 6 C-17 5.34 -17 4.68 -17 4 C-11.43890122 0.13140954 -6.78760781 -1.06715589 0 0 Z " fill="#ACCD6C" transform="translate(265,139)"/>
<path d="M0 0 C0.67578125 1.765625 0.67578125 1.765625 1 4 C-0.14453125 5.921875 -0.14453125 5.921875 -1.8125 7.75 C-2.62654297 8.67039062 -2.62654297 8.67039062 -3.45703125 9.609375 C-5 11 -5 11 -7 11 C-6.7215625 10.1028125 -6.7215625 10.1028125 -6.4375 9.1875 C-5.77906313 6.83591238 -5.77906313 6.83591238 -7 4 C-3.535 3.505 -3.535 3.505 0 3 C0 2.01 0 1.02 0 0 Z " fill="#48A96B" transform="translate(160,325)"/>
<path d="M0 0 C0.66 0.33 1.32 0.66 2 1 C1.67 3.31 1.34 5.62 1 8 C0.01 7.34 -0.98 6.68 -2 6 C-2.99 7.98 -3.98 9.96 -5 12 C-6.27350058 8.98990772 -5.99687398 7.99218495 -4.75 4.875 C-3 2 -3 2 0 0 Z " fill="#F3E637" transform="translate(251,143)"/>
<path d="M0 0 C0.87914062 0.00902344 1.75828125 0.01804688 2.6640625 0.02734375 C4.8178271 0.05075423 6.97145014 0.0866199 9.125 0.125 C9.125 0.455 9.125 0.785 9.125 1.125 C2.525 1.455 -4.075 1.785 -10.875 2.125 C-11.205 3.115 -11.535 4.105 -11.875 5.125 C-12.535 5.125 -13.195 5.125 -13.875 5.125 C-13.875 4.465 -13.875 3.805 -13.875 3.125 C-14.535 2.795 -15.195 2.465 -15.875 2.125 C-10.49292923 -0.11605897 -5.71754456 -0.11193988 0 0 Z " fill="#74C586" transform="translate(181.875,175.875)"/>
<path d="M0 0 C0.33 0 0.66 0 1 0 C1.10845027 3.04263267 1.18752063 6.08136204 1.25 9.125 C1.28351563 9.9809375 1.31703125 10.836875 1.3515625 11.71875 C1.4402681 17.48461373 0.80155181 20.59301586 -3 25 C-3.66 25.33 -4.32 25.66 -5 26 C-4.71125 25.443125 -4.4225 24.88625 -4.125 24.3125 C-3.75375 23.549375 -3.3825 22.78625 -3 22 C-2.6596875 21.3090625 -2.319375 20.618125 -1.96875 19.90625 C-0.66647246 15.99941737 -0.5396901 12.28073514 -0.375 8.1875 C-0.31699219 7.00510742 -0.31699219 7.00510742 -0.2578125 5.79882812 C-0.16411156 3.8662462 -0.08099221 1.93315624 0 0 Z " fill="#EEE556" transform="translate(277,236)"/>
<path d="M0 0 C0.99 0.33 1.98 0.66 3 1 C3 1.99 3 2.98 3 4 C3.66 3.34 4.32 2.68 5 2 C5.98120464 5.05263664 5.98120464 6.94736336 5 10 C4.34 10 3.68 10 3 10 C0.96564469 6.27034861 0 4.33094958 0 0 Z " fill="#4FAD5B" transform="translate(130,324)"/>
<path d="M0 0 C1.32 0.33 2.64 0.66 4 1 C3 3 3 3 -0.25 4.125 C-3.37700635 4.85463482 -5.82622905 5.19234975 -9 5 C-9 5.66 -9 6.32 -9 7 C-9.66 7 -10.32 7 -11 7 C-11.33 6.01 -11.66 5.02 -12 4 C-8.04 3.34 -4.08 2.68 0 2 C0 1.34 0 0.68 0 0 Z " fill="#CAC39F" transform="translate(258,276)"/>
<path d="M0 0 C1.485 0.99 1.485 0.99 3 2 C3 2.66 3 3.32 3 4 C9.27 4 15.54 4 22 4 C22 4.33 22 4.66 22 5 C15.07 5 8.14 5 1 5 C0.67 3.35 0.34 1.7 0 0 Z " fill="#6DC388" transform="translate(162,254)"/>
<path d="M0 0 C-0.33 0.66 -0.66 1.32 -1 2 C-1.66 2 -2.32 2 -3 2 C-3 1.34 -3 0.68 -3 0 C-7.62 0.33 -12.24 0.66 -17 1 C-16 -1 -16 -1 -14.375 -1.625 C-9.11835684 -2.45499629 -4.82417422 -2.33899356 0 0 Z " fill="#A8CCCD" transform="translate(377,185)"/>
<path d="M0 0 C1.45792884 -0.05399736 2.91642712 -0.09279177 4.375 -0.125 C5.18710938 -0.14820313 5.99921875 -0.17140625 6.8359375 -0.1953125 C9 0 9 0 11 2 C10.67 2.33 10.34 2.66 10 3 C10.99 3.66 11.98 4.32 13 5 C11.3125 5.75 11.3125 5.75 9 6 C6.5 4.1875 6.5 4.1875 4 2 C2.68130848 1.30482023 1.35005317 0.63212235 0 0 Z " fill="#71C386" transform="translate(192,177)"/>
<path d="M0 0 C0.66 0.33 1.32 0.66 2 1 C1.57630928 2.6286551 1.1355377 4.25287378 0.6875 5.875 C0.44386719 6.77992188 0.20023438 7.68484375 -0.05078125 8.6171875 C-1 11 -1 11 -4 13 C-4.5497272 7.36529617 -2.95047835 4.61012242 0 0 Z " fill="#A4BE47" transform="translate(246,145)"/>
<path d="M0 0 C2.46226454 2.46226454 2.69375228 3.5547132 3 7 C2.1875 10.75 2.1875 10.75 1 14 C0.01 14.495 0.01 14.495 -1 15 C-0.67 10.05 -0.34 5.1 0 0 Z " fill="#BADDEB" transform="translate(384,266)"/>
<path d="M0 0 C2 0 2 0 3.9375 1.8125 C4.618125 2.534375 5.29875 3.25625 6 4 C6.5775 4.5775 7.155 5.155 7.75 5.75 C8.1625 6.1625 8.575 6.575 9 7 C5.64708882 7.37254569 4.3961577 7.31050198 1.6875 5.1875 C0 3 0 3 0 0 Z " fill="#A2D3D0" transform="translate(288,289)"/>
<path d="M0 0 C0.33 0 0.66 0 1 0 C1.25287193 6.06892629 0.69832609 11.16200408 -1 17 C-1.66 17 -2.32 17 -3 17 C-2.86722656 16.443125 -2.73445312 15.88625 -2.59765625 15.3125 C-1.41779695 10.2141299 -0.56750461 5.20212559 0 0 Z " fill="#499A67" transform="translate(238,227)"/>
<path d="M0 0 C0.75 1.75 0.75 1.75 1 4 C-0.28965176 5.37562854 -1.62689293 6.70766393 -3 8 C-3.7872678 10.1381966 -3.7872678 10.1381966 -4 12 C-4.99 12 -5.98 12 -7 12 C-5.78869178 8.55243044 -4.61489782 6.50594374 -2 4 C-0.82425289 1.90010348 -0.82425289 1.90010348 0 0 Z " fill="#CFC5AF" transform="translate(277,255)"/>
<path d="M0 0 C-0.99 1.485 -0.99 1.485 -2 3 C-4.3828125 3.29296875 -4.3828125 3.29296875 -7.125 3.1875 C-8.03507812 3.16042969 -8.94515625 3.13335937 -9.8828125 3.10546875 C-10.58148438 3.07066406 -11.28015625 3.03585937 -12 3 C-4.82142857 -1.78571429 -4.82142857 -1.78571429 0 0 Z " fill="#97B4C2" transform="translate(336,297)"/>
<path d="M0 0 C0.33 0 0.66 0 1 0 C1.44041451 5.37305699 1.44041451 5.37305699 1 8 C-1.5 10 -1.5 10 -4 11 C-3.52269162 9.5410574 -3.04308958 8.08286504 -2.5625 6.625 C-2.29566406 5.81289063 -2.02882813 5.00078125 -1.75390625 4.1640625 C-1 2 -1 2 0 0 Z " fill="#5D818A" transform="translate(349,274)"/>
<path d="M0 0 C2.10633718 1.70828921 2.93801608 2.52148416 3.29296875 5.26171875 C3.25816406 6.06222656 3.22335937 6.86273438 3.1875 7.6875 C3.16042969 8.49574219 3.13335937 9.30398437 3.10546875 10.13671875 C3.07066406 10.75160156 3.03585937 11.36648437 3 12 C0.50494038 9.50494038 0.64051624 8.32671112 0.375 4.875 C0.30023438 3.96492187 0.22546875 3.05484375 0.1484375 2.1171875 C0.09945313 1.41851562 0.05046875 0.71984375 0 0 Z " fill="#F7EE4F" transform="translate(276,150)"/>
<path d="M0 0 C0.66 0.33 1.32 0.66 2 1 C-0.24578442 4.40739705 -2.51137122 7.76478258 -5 11 C-4.50769231 4.6 -4.50769231 4.6 -1.9375 1.5625 C-0.9784375 0.7890625 -0.9784375 0.7890625 0 0 Z " fill="#96B546" transform="translate(250,194)"/>
<path d="M0 0 C2.7972908 2.06756277 3.02692273 3.14440371 3.6875 6.6875 C3.790625 7.780625 3.89375 8.87375 4 10 C3.34 10 2.68 10 2 10 C2 9.34 2 8.68 2 8 C1.34 8 0.68 8 0 8 C0 5.36 0 2.72 0 0 Z " fill="#A8AF25" transform="translate(244,164)"/>
<path d="M0 0 C0.33 0.66 0.66 1.32 1 2 C-0.22934015 5.68802044 -1.93859378 6.72356973 -5 9 C-5.66 8.67 -6.32 8.34 -7 8 C-4.69 5.36 -2.38 2.72 0 0 Z " fill="#CCC4A1" transform="translate(269,267)"/>
<path d="M0 0 C3.26460973 1.80412643 4.88929795 2.83394693 7 6 C6.625 8.1875 6.625 8.1875 6 10 C4.99421411 8.71283353 3.99553202 7.42011342 3 6.125 C2.443125 5.40570313 1.88625 4.68640625 1.3125 3.9453125 C0 2 0 2 0 0 Z " fill="#1F713D" transform="translate(196,213)"/>
<path d="M0 0 C3.31529273 0.98562757 4.74949379 1.65447419 6.8125 4.5 C8 7 8 7 8 9 C7.34 9 6.68 9 6 9 C5.896875 8.360625 5.79375 7.72125 5.6875 7.0625 C5.3471875 6.0415625 5.3471875 6.0415625 5 5 C4.01 4.67 3.02 4.34 2 4 C0.8125 1.9375 0.8125 1.9375 0 0 Z " fill="#ACD47C" transform="translate(270,194)"/>
<path d="M0 0 C2.97 0.99 5.94 1.98 9 3 C9 3.33 9 3.66 9 4 C3.25 5.125 3.25 5.125 1 4 C0.67 2.68 0.34 1.36 0 0 Z " fill="#9AC4C8" transform="translate(297,296)"/>
<path d="M0 0 C0.7425 0.0825 1.485 0.165 2.25 0.25 C-1.07307692 4.18846154 -1.07307692 4.18846154 -4.5 4.5 C-5.2425 4.4175 -5.985 4.335 -6.75 4.25 C-3.42692308 0.31153846 -3.42692308 0.31153846 0 0 Z " fill="#8FA6B3" transform="translate(339.75,329.75)"/>
<path d="M0 0 C0 4.38968456 -2.12805101 5.76905739 -5 9 C-5 5.74188938 -4.4477922 3.89558441 -3 1 C-2.01 0.67 -1.02 0.34 0 0 Z " fill="#76A5AE" transform="translate(374,304)"/>
<path d="M0 0 C0.66 0.33 1.32 0.66 2 1 C1.67 1.99 1.34 2.98 1 4 C-0.98 4.33 -2.96 4.66 -5 5 C-4.67 4.34 -4.34 3.68 -4 3 C-3.34 3 -2.68 3 -2 3 C-2 2.34 -2 1.68 -2 1 C-1.34 0.67 -0.68 0.34 0 0 Z " fill="#51B480" transform="translate(155,181)"/>
<path d="M0 0 C0.33 0.66 0.66 1.32 1 2 C1.66 2 2.32 2 3 2 C1.25 7.75 1.25 7.75 -1 10 C-0.67 6.7 -0.34 3.4 0 0 Z " fill="#B4D961" transform="translate(277,160)"/>
<path d="M0 0 C0.33 0.66 0.66 1.32 1 2 C2.64363134 2.72159424 4.31050386 3.39351421 6 4 C5.01 4.495 5.01 4.495 4 5 C3.67 5.66 3.34 6.32 3 7 C2.67 6.01 2.34 5.02 2 4 C1.34 4 0.68 4 0 4 C0 2.68 0 1.36 0 0 Z " fill="#C8C2DB" transform="translate(282,289)"/>
<path d="M0 0 C0.33 1.32 0.66 2.64 1 4 C-0.65 5.32 -2.3 6.64 -4 8 C-4.66 7.67 -5.32 7.34 -6 7 C-4.02 4.69 -2.04 2.38 0 0 Z " fill="#548187" transform="translate(344,285)"/>
<path d="M0 0 C0.33 0 0.66 0 1 0 C1.28571429 7.42857143 1.28571429 7.42857143 -1 11 C-1.66 11 -2.32 11 -3 11 C-3 10.01 -3 9.02 -3 8 C-2.34 8 -1.68 8 -1 8 C-0.67 5.36 -0.34 2.72 0 0 Z " fill="#43985B" transform="translate(206,232)"/>
<path d="M0 0 C0.33 0 0.66 0 1 0 C1 2.97 1 5.94 1 9 C0.01 9 -0.98 9 -2 9 C-1.34 6.03 -0.68 3.06 0 0 Z " fill="#56B264" transform="translate(133,208)"/>
<path d="M0 0 C2.35981813 0.93578995 4.69631264 1.93347808 7 3 C7 3.33 7 3.66 7 4 C0.84765625 3.4140625 0.84765625 3.4140625 -1 3 C-1.33 2.34 -1.66 1.68 -2 1 C-1.34 0.67 -0.68 0.34 0 0 Z " fill="#6CC997" transform="translate(203,178)"/>
<path d="M0 0 C0.99 0 1.98 0 3 0 C1.9024777 2.99324263 1.32317108 3.84610901 -1.625 5.25 C-2.40875 5.4975 -3.1925 5.745 -4 6 C-4 5.01 -4 4.02 -4 3 C-2.68 3 -1.36 3 0 3 C0 2.01 0 1.02 0 0 Z " fill="#A8C652" transform="translate(272,170)"/>
</svg>
